# xmcd
#
# Track frame offsets:
#	150
#	15868
#	35849
#	52209
#	66250
#	83841
#	99135
#	113941
#	128070
#	142244
#	156012
#	170256
#	185139
#	199820
#	211772
#	226450
#	240827
#	257081
#	271756
#	289128
#
# Disc length: 4017 seconds
#
# Revision: 0
# Processed by: cddbd v1.5.2PL0 Copyright (c) Steve Scherf et al.
# Submitted via: EasyCDDAExtractor 11.1.0.1
#
DISCID=1a0faf14
DTITLE=Lasse Stefanz - Vart Tog Tiden Vägen Cd 2 - 2
DYEAR=2008
DGENRE=Dance
TTITLE0=Brevet Till Min Kära
TTITLE1=Dansa Natten Lång
TTITLE2=Septemberregn
TTITLE3=Jag Levde I En Drömvärld
TTITLE4=Sommarsvärmeri
TTITLE5=Min Röda Chevrolet
TTITLE6=En Gång Är Ingen Gång
TTITLE7=Jag Ångrar Ingenting
TTITLE8=Mot Nya Mål
TTITLE9=Vill Du Bli Min
TTITLE10=En Enkel Sång Om Kärleken
TTITLE11=Tre Små Ord
TTITLE12=Vart Tog Tiden Vägen
TTITLE13=Ingenting Mer, Ingenting Mindre
TTITLE14=Jag Vill Ge Dig Min Morgon
TTITLE15=Jag Skall Vänta
TTITLE16=När Inte Himlen Är Så Blå
TTITLE17=En Kärleksaffär
TTITLE18=En Man Som Han
TTITLE19=Du Kan Tro På Mitt Ord
EXTD=
EXTT0=
EXTT1=
EXTT2=
EXTT3=
EXTT4=
EXTT5=
EXTT6=
EXTT7=
EXTT8=
EXTT9=
EXTT10=
EXTT11=
EXTT12=
EXTT13=
EXTT14=
EXTT15=
EXTT16=
EXTT17=
EXTT18=
EXTT19=
PLAYORDER=
